<?xml version="1.0" encoding="UTF-8"?><svg xmlns="http://www.w3.org/2000/svg" xmlns:xlink="http://www.w3.org/1999/xlink" stroke-dasharray="none" shape-rendering="auto" font-family="'Dialog'" width="877" text-rendering="auto" fill-opacity="1" contentScriptType="text/ecmascript" color-interpolation="auto" color-rendering="auto" preserveAspectRatio="xMidYMid meet" font-size="12px" viewBox="0 0 877 1020" fill="black" stroke="black" image-rendering="auto" stroke-miterlimit="10" zoomAndPan="magnify" version="1.0" stroke-linecap="square" stroke-linejoin="miter" contentStyleType="text/css" font-style="normal" height="1020" stroke-width="1" stroke-dashoffset="0" font-weight="normal" stroke-opacity="1">
    <!--Generated by the Batik Graphics2D SVG Generator-->
    <defs id="genericDefs"/>
    <g>
        <defs id="defs1">
            <linearGradient x1="10" x2="10" y1="10" gradientUnits="userSpaceOnUse" y2="768" xlink:type="simple" xlink:actuate="onLoad" id="linearGradient1" xlink:show="other" spreadMethod="pad">
                <stop stop-opacity="1" stop-color="white" offset="0%"/>
                <stop stop-opacity="1" stop-color="white" offset="100%"/>
            </linearGradient>
            <linearGradient x1="30" x2="30" y1="49" gradientUnits="userSpaceOnUse" y2="749" xlink:type="simple" xlink:actuate="onLoad" id="linearGradient2" xlink:show="other" spreadMethod="pad">
                <stop stop-opacity="1" stop-color="white" offset="0%"/>
                <stop stop-opacity="1" stop-color="rgb(195,209,213)" offset="100%"/>
            </linearGradient>
            <linearGradient x1="80" x2="80" y1="130" gradientUnits="userSpaceOnUse" y2="490" xlink:type="simple" xlink:actuate="onLoad" id="linearGradient3" xlink:show="other" spreadMethod="pad">
                <stop stop-opacity="1" stop-color="white" offset="0%"/>
                <stop stop-opacity="1" stop-color="rgb(195,209,213)" offset="100%"/>
            </linearGradient>
            <linearGradient x1="190" x2="190" y1="49" gradientUnits="userSpaceOnUse" y2="749" xlink:type="simple" xlink:actuate="onLoad" id="linearGradient4" xlink:show="other" spreadMethod="pad">
                <stop stop-opacity="1" stop-color="white" offset="0%"/>
                <stop stop-opacity="1" stop-color="rgb(195,209,213)" offset="100%"/>
            </linearGradient>
            <linearGradient x1="270" x2="270" y1="130" gradientUnits="userSpaceOnUse" y2="490" xlink:type="simple" xlink:actuate="onLoad" id="linearGradient5" xlink:show="other" spreadMethod="pad">
                <stop stop-opacity="1" stop-color="white" offset="0%"/>
                <stop stop-opacity="1" stop-color="rgb(195,209,213)" offset="100%"/>
            </linearGradient>
            <linearGradient x1="410" x2="410" y1="49" gradientUnits="userSpaceOnUse" y2="749" xlink:type="simple" xlink:actuate="onLoad" id="linearGradient6" xlink:show="other" spreadMethod="pad">
                <stop stop-opacity="1" stop-color="white" offset="0%"/>
                <stop stop-opacity="1" stop-color="rgb(195,209,213)" offset="100%"/>
            </linearGradient>
            <linearGradient x1="470" x2="470" y1="250" gradientUnits="userSpaceOnUse" y2="391" xlink:type="simple" xlink:actuate="onLoad" id="linearGradient7" xlink:show="other" spreadMethod="pad">
                <stop stop-opacity="1" stop-color="white" offset="0%"/>
                <stop stop-opacity="1" stop-color="rgb(195,209,213)" offset="100%"/>
            </linearGradient>
            <linearGradient x1="610" x2="610" y1="49" gradientUnits="userSpaceOnUse" y2="749" xlink:type="simple" xlink:actuate="onLoad" id="linearGradient8" xlink:show="other" spreadMethod="pad">
                <stop stop-opacity="1" stop-color="white" offset="0%"/>
                <stop stop-opacity="1" stop-color="rgb(195,209,213)" offset="100%"/>
            </linearGradient>
            <linearGradient x1="660" x2="660" y1="290" gradientUnits="userSpaceOnUse" y2="331" xlink:type="simple" xlink:actuate="onLoad" id="linearGradient9" xlink:show="other" spreadMethod="pad">
                <stop stop-opacity="1" stop-color="white" offset="0%"/>
                <stop stop-opacity="1" stop-color="rgb(195,209,213)" offset="100%"/>
            </linearGradient>
            <clipPath clipPathUnits="userSpaceOnUse" id="clipPath1">
                <path d="M10 10 L10 767 L866 767 L866 10 Z"/>
            </clipPath>
            <clipPath clipPathUnits="userSpaceOnUse" id="clipPath2">
                <path d="M7 7 L870 7 L870 771 L7 771 L7 7 Z"/>
            </clipPath>
            <clipPath clipPathUnits="userSpaceOnUse" id="clipPath3">
                <path d="M15 12 L173 12 L173 34 L15 34 L15 12 Z"/>
            </clipPath>
            <clipPath clipPathUnits="userSpaceOnUse" id="clipPath4">
                <path d="M29 48 L152 48 L152 750 L29 750 L29 48 Z"/>
            </clipPath>
            <clipPath clipPathUnits="userSpaceOnUse" id="clipPath5">
                <path d="M30 49 L30 748 L150 748 L150 49 Z"/>
            </clipPath>
            <clipPath clipPathUnits="userSpaceOnUse" id="clipPath6">
                <path d="M34 51 L149 51 L149 73 L34 73 L34 51 Z"/>
            </clipPath>
            <clipPath clipPathUnits="userSpaceOnUse" id="clipPath7">
                <path d="M80 130 L80 489 L99 489 L99 130 Z"/>
            </clipPath>
            <clipPath clipPathUnits="userSpaceOnUse" id="clipPath8">
                <path d="M79 129 L101 129 L101 491 L79 491 L79 129 Z"/>
            </clipPath>
            <clipPath clipPathUnits="userSpaceOnUse" id="clipPath9">
                <path d="M189 48 L372 48 L372 750 L189 750 L189 48 Z"/>
            </clipPath>
            <clipPath clipPathUnits="userSpaceOnUse" id="clipPath10">
                <path d="M190 49 L190 748 L370 748 L370 49 Z"/>
            </clipPath>
            <clipPath clipPathUnits="userSpaceOnUse" id="clipPath11">
                <path d="M200 51 L363 51 L363 73 L200 73 L200 51 Z"/>
            </clipPath>
            <clipPath clipPathUnits="userSpaceOnUse" id="clipPath12">
                <path d="M270 130 L270 489 L289 489 L289 130 Z"/>
            </clipPath>
            <clipPath clipPathUnits="userSpaceOnUse" id="clipPath13">
                <path d="M269 129 L291 129 L291 491 L269 491 L269 129 Z"/>
            </clipPath>
            <clipPath clipPathUnits="userSpaceOnUse" id="clipPath14">
                <path d="M409 48 L552 48 L552 750 L409 750 L409 48 Z"/>
            </clipPath>
            <clipPath clipPathUnits="userSpaceOnUse" id="clipPath15">
                <path d="M410 49 L410 748 L550 748 L550 49 Z"/>
            </clipPath>
            <clipPath clipPathUnits="userSpaceOnUse" id="clipPath16">
                <path d="M422 51 L541 51 L541 73 L422 73 L422 51 Z"/>
            </clipPath>
            <clipPath clipPathUnits="userSpaceOnUse" id="clipPath17">
                <path d="M470 250 L470 390 L489 390 L489 250 Z"/>
            </clipPath>
            <clipPath clipPathUnits="userSpaceOnUse" id="clipPath18">
                <path d="M469 249 L491 249 L491 392 L469 392 L469 249 Z"/>
            </clipPath>
            <clipPath clipPathUnits="userSpaceOnUse" id="clipPath19">
                <path d="M609 48 L732 48 L732 750 L609 750 L609 48 Z"/>
            </clipPath>
            <clipPath clipPathUnits="userSpaceOnUse" id="clipPath20">
                <path d="M610 49 L610 748 L730 748 L730 49 Z"/>
            </clipPath>
            <clipPath clipPathUnits="userSpaceOnUse" id="clipPath21">
                <path d="M616 51 L727 51 L727 73 L616 73 L616 51 Z"/>
            </clipPath>
            <clipPath clipPathUnits="userSpaceOnUse" id="clipPath22">
                <path d="M660 290 L660 330 L679 330 L679 290 Z"/>
            </clipPath>
            <clipPath clipPathUnits="userSpaceOnUse" id="clipPath23">
                <path d="M659 289 L681 289 L681 332 L659 332 L659 289 Z"/>
            </clipPath>
            <clipPath clipPathUnits="userSpaceOnUse" id="clipPath24">
                <path d="M9 9 L868 9 L868 769 L9 769 L9 9 Z"/>
            </clipPath>
            <clipPath clipPathUnits="userSpaceOnUse" id="clipPath25">
                <path d="M-1 -1 L878 -1 L878 1021 L-1 1021 L-1 -1 Z"/>
            </clipPath>
            <clipPath clipPathUnits="userSpaceOnUse" id="clipPath26">
                <path d="M313 226 L449 226 L449 248 L313 248 L313 226 Z"/>
            </clipPath>
            <clipPath clipPathUnits="userSpaceOnUse" id="clipPath27">
                <path d="M453 243 L472 243 L472 258 L453 258 L453 243 Z"/>
            </clipPath>
            <clipPath clipPathUnits="userSpaceOnUse" id="clipPath28">
                <path d="M309 369 L443 369 L443 391 L309 391 L309 369 Z"/>
            </clipPath>
            <clipPath clipPathUnits="userSpaceOnUse" id="clipPath29">
                <path d="M289 383 L308 383 L308 398 L289 398 L289 383 Z"/>
            </clipPath>
            <clipPath clipPathUnits="userSpaceOnUse" id="clipPath30">
                <path d="M110 146 L262 146 L262 168 L110 168 L110 146 Z"/>
            </clipPath>
            <clipPath clipPathUnits="userSpaceOnUse" id="clipPath31">
                <path d="M253 163 L272 163 L272 178 L253 178 L253 163 Z"/>
            </clipPath>
            <clipPath clipPathUnits="userSpaceOnUse" id="clipPath32">
                <path d="M130 466 L242 466 L242 488 L130 488 L130 466 Z"/>
            </clipPath>
            <clipPath clipPathUnits="userSpaceOnUse" id="clipPath33">
                <path d="M253 483 L272 483 L272 498 L253 498 L253 483 Z"/>
            </clipPath>
            <clipPath clipPathUnits="userSpaceOnUse" id="clipPath34">
                <path d="M149 409 L240 409 L240 431 L149 431 L149 409 Z"/>
            </clipPath>
            <clipPath clipPathUnits="userSpaceOnUse" id="clipPath35">
                <path d="M99 423 L118 423 L118 438 L99 438 L99 423 Z"/>
            </clipPath>
            <clipPath clipPathUnits="userSpaceOnUse" id="clipPath36">
                <path d="M549 309 L615 309 L615 331 L549 331 L549 309 Z"/>
            </clipPath>
            <clipPath clipPathUnits="userSpaceOnUse" id="clipPath37">
                <path d="M489 324 L508 324 L508 339 L489 339 L489 324 Z"/>
            </clipPath>
            <clipPath clipPathUnits="userSpaceOnUse" id="clipPath38">
                <path d="M507 266 L646 266 L646 288 L507 288 L507 266 Z"/>
            </clipPath>
            <clipPath clipPathUnits="userSpaceOnUse" id="clipPath39">
                <path d="M643 283 L662 283 L662 298 L643 298 L643 283 Z"/>
            </clipPath>
            <clipPath clipPathUnits="userSpaceOnUse" id="clipPath40">
                <path d="M116 186 L257 186 L257 208 L116 208 L116 186 Z"/>
            </clipPath>
            <clipPath clipPathUnits="userSpaceOnUse" id="clipPath41">
                <path d="M253 203 L272 203 L272 218 L253 218 L253 203 Z"/>
            </clipPath>
            <clipPath clipPathUnits="userSpaceOnUse" id="clipPath42">
                <path d="M136 106 L236 106 L236 128 L136 128 L136 106 Z"/>
            </clipPath>
            <clipPath clipPathUnits="userSpaceOnUse" id="clipPath43">
                <path d="M253 123 L272 123 L272 138 L253 138 L253 123 Z"/>
            </clipPath>
        </defs>
        <g font-size="15px" fill="url(#linearGradient1)" font-family="'Segoe UI'" stroke-linejoin="round" stroke="url(#linearGradient1)" stroke-width="0" stroke-miterlimit="0">
            <rect x="10" width="857" height="758" y="10" clip-path="url(#clipPath1)" stroke="none"/>
        </g>
        <g font-size="15px" stroke-width="0.1" font-family="'Segoe UI'" stroke-linecap="butt">
            <line y2="25" fill="none" x1="186" clip-path="url(#clipPath2)" x2="186" y1="10"/>
            <line y2="25" fill="none" x1="186" clip-path="url(#clipPath2)" x2="186" y1="25"/>
            <line y2="33" fill="none" x1="186" clip-path="url(#clipPath2)" x2="177" y1="25"/>
            <line y2="33" fill="none" x1="177" clip-path="url(#clipPath2)" x2="177" y1="33"/>
            <line y2="33" fill="none" x1="177" clip-path="url(#clipPath2)" x2="10" y1="33"/>
            <text x="16" xml:space="preserve" y="30" clip-path="url(#clipPath3)" stroke="none">Flower pick-up service  </text>
            <rect x="30" y="49" clip-path="url(#clipPath4)" fill="none" width="120" height="23" stroke-width="1.1"/>
            <line clip-path="url(#clipPath4)" fill="none" x1="90" x2="90" y1="72" y2="748" stroke-dasharray="5,5" stroke-width="1.1"/>
        </g>
        <g stroke-linecap="butt" font-size="15px" fill="url(#linearGradient2)" font-family="'Segoe UI'" stroke-dasharray="5,5" stroke="url(#linearGradient2)" stroke-width="1.1">
            <rect x="30" y="49" clip-path="url(#clipPath5)" width="121" height="700" opacity="0" stroke="none"/>
            <text fill="black" x="35" xml:space="preserve" y="69" clip-path="url(#clipPath6)" stroke="none">Kunde: Customer</text>
            <rect x="80" y="130" clip-path="url(#clipPath7)" fill="url(#linearGradient3)" width="20" height="360" stroke="none"/>
            <rect x="80" y="130" clip-path="url(#clipPath8)" fill="none" width="19" stroke-dasharray="none" rx="0" ry="0" height="359" stroke="black"/>
            <rect x="190" y="49" clip-path="url(#clipPath9)" fill="none" width="180" stroke-dasharray="none" height="23" stroke="black"/>
            <line clip-path="url(#clipPath9)" fill="none" x1="280" x2="280" y1="72" y2="748" stroke="black"/>
            <rect x="190" y="49" clip-path="url(#clipPath10)" fill="url(#linearGradient4)" width="181" opacity="0" height="700" stroke="none"/>
            <text fill="black" x="201" xml:space="preserve" y="69" clip-path="url(#clipPath11)" stroke="none">flowerShop: FlowerShop</text>
            <rect x="270" y="130" clip-path="url(#clipPath12)" fill="url(#linearGradient5)" width="20" height="360" stroke="none"/>
            <rect x="270" y="130" clip-path="url(#clipPath13)" fill="none" width="19" stroke-dasharray="none" rx="0" ry="0" height="359" stroke="black"/>
            <rect x="410" y="49" clip-path="url(#clipPath14)" fill="none" width="140" stroke-dasharray="none" height="23" stroke="black"/>
            <line clip-path="url(#clipPath14)" fill="none" x1="480" x2="480" y1="72" y2="748" stroke="black"/>
            <rect x="410" y="49" clip-path="url(#clipPath15)" fill="url(#linearGradient6)" width="141" opacity="0" height="700" stroke="none"/>
            <text fill="black" x="423" xml:space="preserve" y="69" clip-path="url(#clipPath16)" stroke="none">Rosas Niece: User</text>
            <rect x="470" y="250" clip-path="url(#clipPath17)" fill="url(#linearGradient7)" width="20" height="141" stroke="none"/>
            <rect x="470" y="250" clip-path="url(#clipPath18)" fill="none" width="19" stroke-dasharray="none" rx="0" ry="0" height="140" stroke="black"/>
            <rect x="610" y="49" clip-path="url(#clipPath19)" fill="none" width="120" stroke-dasharray="none" height="23" stroke="black"/>
            <line clip-path="url(#clipPath19)" fill="none" x1="670" x2="670" y1="72" y2="748" stroke="black"/>
            <rect x="610" y="49" clip-path="url(#clipPath20)" fill="url(#linearGradient8)" width="121" opacity="0" height="700" stroke="none"/>
            <text fill="black" x="617" xml:space="preserve" y="69" clip-path="url(#clipPath21)" stroke="none">storage: Storage</text>
            <rect x="660" y="290" clip-path="url(#clipPath22)" fill="url(#linearGradient9)" width="20" height="41" stroke="none"/>
            <rect x="660" y="290" clip-path="url(#clipPath23)" fill="none" width="19" stroke-dasharray="none" rx="0" ry="0" height="40" stroke="black"/>
            <rect x="10" y="10" clip-path="url(#clipPath24)" fill="none" width="856" stroke-dasharray="none" rx="0" ry="0" height="757" stroke="black"/>
        </g>
        <g text-rendering="optimizeLegibility" stroke-width="1.1" font-size="15px" font-family="'Segoe UI'" stroke-linecap="butt">
            <line y2="250" fill="none" x1="290" clip-path="url(#clipPath25)" x2="470" y1="250"/>
            <text x="314" xml:space="preserve" y="244" clip-path="url(#clipPath26)" stroke="none">4: sendInformation()</text>
            <polygon points=" 470 250 454 256 454 244" clip-path="url(#clipPath27)" stroke="none"/>
            <polygon fill="none" points=" 470 250 454 256 454 244" clip-path="url(#clipPath27)"/>
            <line clip-path="url(#clipPath25)" fill="none" x1="470" x2="290" y1="390" y2="390" stroke-dasharray="6.6,3.3"/>
            <text x="310" xml:space="preserve" stroke-dasharray="6.6,3.3" y="387" clip-path="url(#clipPath28)" stroke="none">7: saveInformation()</text>
            <line y2="390" fill="none" x1="306" clip-path="url(#clipPath29)" x2="290" y1="384"/>
            <line y2="396" fill="none" x1="290" clip-path="url(#clipPath29)" x2="306" y1="390"/>
            <line y2="170" fill="none" x1="100" clip-path="url(#clipPath25)" x2="270" y1="170"/>
            <text x="111" xml:space="preserve" y="164" clip-path="url(#clipPath30)" stroke="none">2: chooseServiceType()</text>
            <polygon points=" 270 170 254 176 254 164" clip-path="url(#clipPath31)" stroke="none"/>
            <polygon fill="none" points=" 270 170 254 176 254 164" clip-path="url(#clipPath31)"/>
            <line y2="490" fill="none" x1="100" clip-path="url(#clipPath25)" x2="270" y1="490"/>
            <text x="131" xml:space="preserve" y="484" clip-path="url(#clipPath32)" stroke="none">9: pickupFlowers</text>
            <polygon points=" 270 490 254 496 254 484" clip-path="url(#clipPath33)" stroke="none"/>
            <polygon fill="none" points=" 270 490 254 496 254 484" clip-path="url(#clipPath33)"/>
            <line clip-path="url(#clipPath25)" fill="none" x1="270" x2="100" y1="430" y2="430" stroke-dasharray="6.6,3.3"/>
            <text x="150" xml:space="preserve" stroke-dasharray="6.6,3.3" y="427" clip-path="url(#clipPath34)" stroke="none">8: sendTime()</text>
            <line y2="430" fill="none" x1="116" clip-path="url(#clipPath35)" x2="100" y1="424"/>
            <line y2="436" fill="none" x1="100" clip-path="url(#clipPath35)" x2="116" y1="430"/>
            <line clip-path="url(#clipPath25)" fill="none" x1="670" x2="490" y1="331" y2="331" stroke-dasharray="6.6,3.3"/>
            <text x="550" xml:space="preserve" stroke-dasharray="6.6,3.3" y="327" clip-path="url(#clipPath36)" stroke="none">6: flowers</text>
            <line y2="331" fill="none" x1="506" clip-path="url(#clipPath37)" x2="490" y1="325"/>
            <line y2="337" fill="none" x1="490" clip-path="url(#clipPath37)" x2="506" y1="331"/>
            <line y2="290" fill="none" x1="490" clip-path="url(#clipPath25)" x2="660" y1="290"/>
            <text x="508" xml:space="preserve" y="284" clip-path="url(#clipPath38)" stroke="none">5: flowersInStorage()</text>
            <polygon points=" 660 290 644 296 644 284" clip-path="url(#clipPath39)" stroke="none"/>
            <polygon fill="none" points=" 660 290 644 296 644 284" clip-path="url(#clipPath39)"/>
            <line y2="210" fill="none" x1="100" clip-path="url(#clipPath25)" x2="270" y1="210"/>
            <text x="117" xml:space="preserve" y="204" clip-path="url(#clipPath40)" stroke="none">3: chooseFrequency()</text>
            <polygon points=" 270 210 254 216 254 204" clip-path="url(#clipPath41)" stroke="none"/>
            <polygon fill="none" points=" 270 210 254 216 254 204" clip-path="url(#clipPath41)"/>
            <line y2="130" fill="none" x1="100" clip-path="url(#clipPath25)" x2="270" y1="130"/>
            <text x="137" xml:space="preserve" y="124" clip-path="url(#clipPath42)" stroke="none">1: contactShop</text>
            <polygon points=" 270 130 254 136 254 124" clip-path="url(#clipPath43)" stroke="none"/>
            <polygon fill="none" points=" 270 130 254 136 254 124" clip-path="url(#clipPath43)"/>
            <line y2="130" fill="none" x1="100" clip-path="url(#clipPath25)" x2="270" y1="130"/>
            <text x="137" xml:space="preserve" y="124" clip-path="url(#clipPath42)" stroke="none">1: contactShop</text>
            <polygon points=" 270 130 254 136 254 124" clip-path="url(#clipPath43)" stroke="none"/>
            <polygon fill="none" points=" 270 130 254 136 254 124" clip-path="url(#clipPath43)"/>
            <line y2="170" fill="none" x1="100" clip-path="url(#clipPath25)" x2="270" y1="170"/>
            <text x="111" xml:space="preserve" y="164" clip-path="url(#clipPath30)" stroke="none">2: chooseServiceType()</text>
            <polygon points=" 270 170 254 176 254 164" clip-path="url(#clipPath31)" stroke="none"/>
            <polygon fill="none" points=" 270 170 254 176 254 164" clip-path="url(#clipPath31)"/>
            <line y2="210" fill="none" x1="100" clip-path="url(#clipPath25)" x2="270" y1="210"/>
            <text x="117" xml:space="preserve" y="204" clip-path="url(#clipPath40)" stroke="none">3: chooseFrequency()</text>
            <polygon points=" 270 210 254 216 254 204" clip-path="url(#clipPath41)" stroke="none"/>
            <polygon fill="none" points=" 270 210 254 216 254 204" clip-path="url(#clipPath41)"/>
            <line y2="250" fill="none" x1="290" clip-path="url(#clipPath25)" x2="470" y1="250"/>
            <text x="314" xml:space="preserve" y="244" clip-path="url(#clipPath26)" stroke="none">4: sendInformation()</text>
            <polygon points=" 470 250 454 256 454 244" clip-path="url(#clipPath27)" stroke="none"/>
            <polygon fill="none" points=" 470 250 454 256 454 244" clip-path="url(#clipPath27)"/>
            <line clip-path="url(#clipPath25)" fill="none" x1="470" x2="290" y1="390" y2="390" stroke-dasharray="6.6,3.3"/>
            <text x="310" xml:space="preserve" stroke-dasharray="6.6,3.3" y="387" clip-path="url(#clipPath28)" stroke="none">7: saveInformation()</text>
            <line y2="390" fill="none" x1="306" clip-path="url(#clipPath29)" x2="290" y1="384"/>
            <line y2="396" fill="none" x1="290" clip-path="url(#clipPath29)" x2="306" y1="390"/>
            <line y2="290" fill="none" x1="490" clip-path="url(#clipPath25)" x2="660" y1="290"/>
            <text x="508" xml:space="preserve" y="284" clip-path="url(#clipPath38)" stroke="none">5: flowersInStorage()</text>
            <polygon points=" 660 290 644 296 644 284" clip-path="url(#clipPath39)" stroke="none"/>
            <polygon fill="none" points=" 660 290 644 296 644 284" clip-path="url(#clipPath39)"/>
            <line clip-path="url(#clipPath25)" fill="none" x1="670" x2="490" y1="331" y2="331" stroke-dasharray="6.6,3.3"/>
            <text x="550" xml:space="preserve" stroke-dasharray="6.6,3.3" y="327" clip-path="url(#clipPath36)" stroke="none">6: flowers</text>
            <line y2="331" fill="none" x1="506" clip-path="url(#clipPath37)" x2="490" y1="325"/>
            <line y2="337" fill="none" x1="490" clip-path="url(#clipPath37)" x2="506" y1="331"/>
            <line clip-path="url(#clipPath25)" fill="none" x1="270" x2="100" y1="430" y2="430" stroke-dasharray="6.6,3.3"/>
            <text x="150" xml:space="preserve" stroke-dasharray="6.6,3.3" y="427" clip-path="url(#clipPath34)" stroke="none">8: sendTime()</text>
            <line y2="430" fill="none" x1="116" clip-path="url(#clipPath35)" x2="100" y1="424"/>
            <line y2="436" fill="none" x1="100" clip-path="url(#clipPath35)" x2="116" y1="430"/>
            <line y2="490" fill="none" x1="100" clip-path="url(#clipPath25)" x2="270" y1="490"/>
            <text x="131" xml:space="preserve" y="484" clip-path="url(#clipPath32)" stroke="none">9: pickupFlowers</text>
            <polygon points=" 270 490 254 496 254 484" clip-path="url(#clipPath33)" stroke="none"/>
            <polygon fill="none" points=" 270 490 254 496 254 484" clip-path="url(#clipPath33)"/>
        </g>
    </g>
</svg>
